<?xml version="1.0" encoding="utf-8"?>
<!-- Generator: Adobe Illustrator 26.4.0, SVG Export Plug-In . SVG Version: 6.00 Build 0)  -->
<svg version="1.1" id="Layer_1" xmlns="http://www.w3.org/2000/svg" xmlns:xlink="http://www.w3.org/1999/xlink" x="0px" y="0px"
	 viewBox="0 0 9.9 16.6" style="enable-background:new 0 0 9.9 16.6;" xml:space="preserve">
<style type="text/css">
	.st0{fill:#183850;}
</style>
<g transform="translate(302.495 -1.322) rotate(90)">
	<path class="st0" d="M9.6,292.6c-0.3,0-0.6,0.1-0.9,0.4l-7.1,7.7c-0.4,0.4-0.4,1.1,0,1.5l0.1,0.1c0.5,0.4,1.2,0.3,1.7-0.1l6.2-6.7
		l6.2,6.7c0.4,0.5,1.2,0.5,1.7,0.1c0.5-0.3,0.6-1,0.2-1.5c0,0,0-0.1-0.1-0.1l-7.1-7.7C10.3,292.8,9.9,292.6,9.6,292.6L9.6,292.6z"/>
</g>
</svg>
